<svg viewBox="0 0 129 25">
    <g id="Symbols" stroke="none" stroke-width="1" fill="none" fill-rule="evenodd">
        <g id="Header" transform="translate(-32.000000, -19.000000)" fill-rule="nonzero">
            <g id="meu_bridge" transform="translate(32.000000, 19.000000)">
                <path d="M14.088,6.312 C15.096005,6.312 15.903997,6.6519966 16.512,7.332 C17.120003,8.0120034 17.424,8.951994 17.424,10.152 L17.424,19.464 L13.632,19.464 L13.632,10.8 C13.632,9.66399432 13.2720036,9.096 12.552,9.096 C12.151998,9.096 11.8000015,9.23199864 11.496,9.504 C11.1919985,9.77600136 10.8960014,10.1919972 10.608,10.752 L10.608,19.464 L6.816,19.464 L6.816,10.8 C6.816,9.66399432 6.4560036,9.096 5.736,9.096 C5.35199808,9.096 5.00400156,9.2359986 4.692,9.516 C4.37999844,9.7960014 4.08000144,10.2079973 3.792,10.752 L3.792,19.464 L0,19.464 L0,6.72 L3.312,6.72 L3.576,8.208 C4.07200248,7.5679968 4.619997,7.09200156 5.22,6.78 C5.820003,6.46799844 6.50399616,6.312 7.272,6.312 C7.9920036,6.312 8.6119974,6.48799824 9.132,6.84 C9.6520026,7.19200176 10.0319988,7.6879968 10.272,8.328 C10.7840026,7.63999656 11.3479969,7.13200164 11.964,6.804 C12.5800031,6.47599836 13.287996,6.312 14.088,6.312 Z M31.392,12.84 C31.392,13.3680026 31.3680002,13.8239981 31.32,14.208 L23.424,14.208 C23.5520006,15.2800054 23.8559976,16.0319978 24.336,16.464 C24.8160024,16.8960022 25.4799958,17.112 26.328,17.112 C26.8400026,17.112 27.3359976,17.0200009 27.816,16.836 C28.2960024,16.6519991 28.8159972,16.3680019 29.376,15.984 L30.936,18.096 C29.4479926,19.2800059 27.7920091,19.872 25.968,19.872 C23.9039897,19.872 22.3200055,19.2640061 21.216,18.048 C20.1119945,16.8319939 19.56,15.2000102 19.56,13.152 C19.56,11.8559935 19.7919977,10.6920052 20.256,9.66 C20.7200023,8.62799484 21.3999955,7.812003 22.296,7.212 C23.1920045,6.611997 24.2639938,6.312 25.512,6.312 C27.3520092,6.312 28.7919948,6.88799424 29.832,8.04 C30.8720052,9.19200576 31.392,10.7919898 31.392,12.84 Z M27.672,11.76 C27.6399998,9.80799024 26.9520067,8.832 25.608,8.832 C24.9519967,8.832 24.4440018,9.0719976 24.084,9.552 C23.7239982,10.0320024 23.5040004,10.8239945 23.424,11.928 L27.672,11.928 L27.672,11.76 Z M44.28,19.464 L40.992,19.464 L40.824,17.856 C39.8959954,19.2000067 38.6080082,19.872 36.96,19.872 C35.7919942,19.872 34.908003,19.5200035 34.308,18.816 C33.707997,18.1119965 33.408,17.1280063 33.408,15.864 L33.408,6.72 L37.2,6.72 L37.2,15.384 C37.2,16.0080031 37.299999,16.4439988 37.5,16.692 C37.700001,16.9400012 38.0079979,17.064 38.424,17.064 C39.224004,17.064 39.9119971,16.568005 40.488,15.576 L40.488,6.72 L44.28,6.72 L44.28,19.464 Z" id="meu" fill="#000000"></path>
                <polygon id="_" fill="#0099FF" points="46.008 23.568 46.008 20.592 58.008 20.592 58.008 23.568"></polygon>
                <path d="M66.96,6.312 C68.4800076,6.312 69.6479959,6.90799404 70.464,8.1 C71.2800041,9.29200596 71.688,10.9599893 71.688,13.104 C71.688,14.4160066 71.484002,15.5839949 71.076,16.608 C70.667998,17.6320051 70.0840038,18.4319971 69.324,19.008 C68.5639962,19.5840029 67.6640052,19.872 66.624,19.872 C65.9359966,19.872 65.3080028,19.7280014 64.74,19.44 C64.1719972,19.1519986 63.688002,18.7520026 63.288,18.24 L63.096,19.464 L59.736,19.464 L59.736,1.656 L63.528,1.248 L63.528,8.016 C63.9120019,7.48799736 64.403997,7.07200152 65.004,6.768 C65.604003,6.46399848 66.2559965,6.312 66.96,6.312 Z M65.52,17.112 C67.0080074,17.112 67.752,15.7760134 67.752,13.104 C67.752,11.5839924 67.5760018,10.5360029 67.224,9.96 C66.8719982,9.38399712 66.3600034,9.096 65.688,9.096 C64.8399958,9.096 64.120003,9.59199504 63.528,10.584 L63.528,15.888 C63.7680012,16.2720019 64.0599983,16.5719989 64.404,16.788 C64.7480017,17.0040011 65.119998,17.112 65.52,17.112 Z M80.976,6.36 C81.4400023,6.36 81.8639981,6.41599944 82.248,6.528 L81.648,10.2 C81.1679976,10.0879994 80.7840014,10.032 80.496,10.032 C79.7439962,10.032 79.172002,10.2919974 78.78,10.812 C78.387998,11.3320026 78.0800011,12.1119948 77.856,13.152 L77.856,19.464 L74.064,19.464 L74.064,6.72 L77.376,6.72 L77.688,9.192 C77.9760014,8.3119956 78.4119971,7.62000252 78.996,7.116 C79.5800029,6.61199748 80.2399963,6.36 80.976,6.36 Z M87.48,6.72 L87.48,19.464 L83.688,19.464 L83.688,6.72 L87.48,6.72 Z M85.56,0 C86.2160033,0 86.7559979,0.20399796 87.18,0.612 C87.6040021,1.02000204 87.816,1.53599688 87.816,2.16 C87.816,2.78400312 87.6040021,3.29999796 87.18,3.708 C86.7559979,4.11600204 86.2160033,4.32 85.56,4.32 C84.9039967,4.32 84.3680021,4.11600204 83.952,3.708 C83.5359979,3.29999796 83.328,2.78400312 83.328,2.16 C83.328,1.53599688 83.5359979,1.02000204 83.952,0.612 C84.3680021,0.20399796 84.9039967,0 85.56,0 Z M101.88,1.656 L101.88,19.464 L98.52,19.464 L98.328,17.976 C97.4319955,19.2400063 96.2240076,19.872 94.704,19.872 C93.1199921,19.872 91.9160041,19.2640061 91.092,18.048 C90.2679959,16.8319939 89.856,15.1680106 89.856,13.056 C89.856,11.7599935 90.0719978,10.6000051 90.504,9.576 C90.9360022,8.55199488 91.547996,7.75200288 92.34,7.176 C93.132004,6.59999712 94.0399949,6.312 95.064,6.312 C96.2800061,6.312 97.287996,6.711996 98.088,7.512 L98.088,1.248 L101.88,1.656 Z M95.88,17.088 C96.7600044,17.088 97.495997,16.6080048 98.088,15.648 L98.088,10.152 C97.7839985,9.78399816 97.4760016,9.51200088 97.164,9.336 C96.8519984,9.15999912 96.496002,9.072 96.096,9.072 C95.3919965,9.072 94.8320021,9.39999672 94.416,10.056 C93.9999979,10.7120033 93.792,11.7199932 93.792,13.08 C93.792,14.5680074 93.9719982,15.607997 94.332,16.2 C94.6920018,16.792003 95.2079966,17.088 95.88,17.088 Z M116.592,7.464 C115.759996,7.80000168 114.536008,7.968 112.92,7.968 C113.752004,8.32000176 114.359998,8.75199744 114.744,9.264 C115.128002,9.77600256 115.32,10.4399959 115.32,11.256 C115.32,12.0720041 115.104002,12.8039968 114.672,13.452 C114.239998,14.1000032 113.620004,14.6079982 112.812,14.976 C112.003996,15.3440018 111.056005,15.528 109.968,15.528 C109.455997,15.528 108.968002,15.4800005 108.504,15.384 C108.375999,15.4480003 108.276,15.5479993 108.204,15.684 C108.132,15.8200007 108.096,15.9599993 108.096,16.104 C108.096,16.3440012 108.187999,16.5319993 108.372,16.668 C108.556001,16.8040007 108.927997,16.872 109.488,16.872 L111.408,16.872 C112.384005,16.872 113.239996,17.0319984 113.976,17.352 C114.712004,17.6720016 115.279998,18.1119972 115.68,18.672 C116.080002,19.2320028 116.28,19.8639965 116.28,20.568 C116.28,21.8960066 115.708006,22.9319963 114.564,23.676 C113.419994,24.4200037 111.768011,24.792 109.608,24.792 C108.055992,24.792 106.832004,24.6280016 105.936,24.3 C105.039996,23.9719984 104.412002,23.512003 104.052,22.92 C103.691998,22.327997 103.512,21.5840045 103.512,20.688 L106.92,20.688 C106.92,21.0720019 106.995999,21.3759989 107.148,21.6 C107.300001,21.8240011 107.575998,21.9919994 107.976,22.104 C108.376002,22.2160006 108.951996,22.272 109.704,22.272 C110.744005,22.272 111.463998,22.1480012 111.864,21.9 C112.264002,21.6519988 112.464,21.2960023 112.464,20.832 C112.464,20.4479981 112.312002,20.1440011 112.008,19.92 C111.703998,19.6959989 111.248003,19.584 110.64,19.584 L108.792,19.584 C107.479993,19.584 106.500003,19.3480024 105.852,18.876 C105.203997,18.4039976 104.88,17.8000037 104.88,17.064 C104.88,16.5999977 105.015999,16.1480022 105.288,15.708 C105.560001,15.2679978 105.927998,14.9040014 106.392,14.616 C105.591996,14.1839978 105.012002,13.6760029 104.652,13.092 C104.291998,12.5079971 104.112,11.8000042 104.112,10.968 C104.112,9.54399288 104.623995,8.4120042 105.648,7.572 C106.672005,6.7319958 108.023992,6.312 109.704,6.312 C110.984006,6.34400016 112.067996,6.21600144 112.956,5.928 C113.844004,5.63999856 114.759995,5.2160028 115.704,4.656 L116.592,7.464 Z M109.8,8.808 C109.207997,8.808 108.740002,8.99599812 108.396,9.372 C108.051998,9.74800188 107.88,10.2639967 107.88,10.92 C107.88,11.6080034 108.051998,12.1399981 108.396,12.516 C108.740002,12.8920019 109.207997,13.08 109.8,13.08 C110.424003,13.08 110.899998,12.8960018 111.228,12.528 C111.556002,12.1599982 111.72,11.6080037 111.72,10.872 C111.72,9.49599312 111.080006,8.808 109.8,8.808 Z M128.664,12.84 C128.664,13.3680026 128.64,13.8239981 128.592,14.208 L120.696,14.208 C120.824001,15.2800054 121.127998,16.0319978 121.608,16.464 C122.088002,16.8960022 122.751996,17.112 123.6,17.112 C124.112003,17.112 124.607998,17.0200009 125.088,16.836 C125.568002,16.6519991 126.087997,16.3680019 126.648,15.984 L128.208,18.096 C126.719993,19.2800059 125.064009,19.872 123.24,19.872 C121.17599,19.872 119.592006,19.2640061 118.488,18.048 C117.383994,16.8319939 116.832,15.2000102 116.832,13.152 C116.832,11.8559935 117.063998,10.6920052 117.528,9.66 C117.992002,8.62799484 118.671996,7.812003 119.568,7.212 C120.464004,6.611997 121.535994,6.312 122.784,6.312 C124.624009,6.312 126.063995,6.88799424 127.104,8.04 C128.144005,9.19200576 128.664,10.7919898 128.664,12.84 Z M124.944,11.76 C124.912,9.80799024 124.224007,8.832 122.88,8.832 C122.223997,8.832 121.716002,9.0719976 121.356,9.552 C120.995998,10.0320024 120.776,10.8239945 120.696,11.928 L124.944,11.928 L124.944,11.76 Z" id="bridge" fill="#000000"></path>
            </g>
        </g>
    </g>
</svg>
